<?xml version="1.0" encoding="UTF-8" standalone="no"?>
<svg width="354.52" xmlns="http://www.w3.org/2000/svg" height="463.62">
 <g id="g1784">
  <g id="g1786">
   <path id="path1788" d="m82.882 97.304c26.87 0 48.651-21.784 48.651-48.651 0-26.869-21.781-48.653-48.651-48.653s-48.653 21.784-48.653 48.653c0 26.867 21.783 48.651 48.653 48.651z"/>
   <path id="path1790" d="m82.882 48.653"/>
  </g>
  <path id="path1792" d="m45.918 156.49c-8.75-56 72-73 85-15.75l22 109.68 82.077 0.17c23.963 0 36.423 19.17 36.423 36.903v149.12c0 36.21-51.562 36.04-51.562-0.64899v-116.05h-104.83c-24.442 0-39.778-16.774-43.612-35.944l-25.497-127.48z"/>
  <path id="path1794" d="m181.42 329.7c27.233 0 27.106 40.283 0.37601 40.283h-75.279c-36.597 0-73.097-27.5-82.645-70l-23.452-114c-4.753-25.883 32.5-34.5 38-8l22.24 109.06c6.23 27.797 26.838 42.654 51.759 42.654h69.001z"/>
 </g>
</svg>
