<?xml version="1.0" encoding="UTF-8" standalone="no"?>
<svg width="298.39" xmlns="http://www.w3.org/2000/svg" height="254.32">
 <g id="layer2">
  <g id="g3171" fill="#fff" transform="matrix(.93953 0 0 .93953 12.964 4.0065)">
   <g stroke-width="6" stroke="#000">
    <path id="path3375" fill-rule="evenodd" d="m21.644 140.07l-0.7575 61.738 63.253 6.439v-72.344l-62.496 4.1664z"/>
    <rect id="rect3377" rx="11.516" ry=".053213" height="35.621" width="23.033" y="38.993" x="140.76"/>
   </g>
   <g id="g3379" stroke-width="2.734">
    <path id="path3381" d="m84.139 135.64c3.8662 0.25694 5.6068 4.5389 9.2797 5.8708 3.5504 1.0118 7.1936 0.66249 10.795 0.37877 1.2049-0.63565 8.018-5.7154 8.3978-6.4849 3.0479-2.5334 7.1686-8.8622 7.1315-12.453l0.7575-19.885c0.038757-1.0172-4.1305-4.2248-4.794-4.9968-0.80718-0.93924 1.0582-9.9911-0.49527-9.817-1.754-0.67764-2.6285 0.073631-5.2242-1.1553-0.63952-1.938-0.95955-10.112 1.5374-9.6506 4.2101 0.25444 6.8484 0.76677 11.635-0.86846 2.9009 0 12.874-9.217 15.754-9.217l25.483 0.1339c1.6288 0 4.7492 4.2965 5.5336 5.0809 3.7576 4.5799 8.7742 5.6356 15.627 7.8795 1.7529 0.21157 7.8334-0.85695 8.3653 0.37482 1.2052 4.014 0.79616 8.0735 0.47067 9.6086-0.43634 2.0578-4.5217-0.029541-4.7385 2.6339-0.17613 2.1637-0.061935 6.042-0.65774 8.7194-3.6193 3.7276-8.0043 6.0739-6.4989 7.5808l-0.0992 17.02c0.46494 3.8762 1.6681 8.2035 3.0761 10.693 3.9519 8.7132 12.115 8.9177 13.052 9.1592 0.43004 0.11081 37.324 4.8832 58.14 24.809 1.7713 1.6948 5.6658 4.9809 10.037 18.37 4.2241 12.938 7.0977 55.098 5.6815 55.678-12.052 4.9394-28.425 10.088-47.914 3.7876-2.4315-0.78604 0.25749-16.666-1.3257-24.241-1.6236-7.7686 0.051453-22.862-16.76-25.851-7.0054-1.2452-29.658 2.706-45.546 6.0602-7.5656 1.5971-17.803 2.5943-23.199 1.5151-3.3346-0.66693-23.799-5.1095-27.569-6.0519-2.5004-0.62511-8.0739-0.94661-16.497 1.6785-6.2517 1.9485-9.6079 6.7135-9.4185 5.0525 0.13822-1.2122 0.23657-70.149-0.016251-71.413z" fill-rule="evenodd" stroke="#000" stroke-width="6"/>
   </g>
   <g stroke-width="6" stroke="#000" fill-rule="evenodd">
    <path id="path3395" d="m152.16 6.1041c-3.8371-0.04417-9.9926 5.5053-17.399 10.831-9.7724 6.0549-21.399 1.7801-31.327-1.4633-9.4222-3.7398-24.454-0.63497-25.73 11.151 0.25484 6.8669 2.762 17.558 11.108 17.998 14.025-1.8988 28.47-8.1516 42.596-3.5781 5.6397 2.4897 6.6545 6.3502 7.1242 6.259h27.674c0.46973 0.09111 1.4845-3.7694 7.1242-6.259 14.126-4.5735 28.571 1.6793 42.596 3.5781 8.3462-0.43933 10.864-11.13 11.119-17.998-1.2767-11.786-16.319-14.891-25.741-11.151-9.928 3.2434-21.555 7.5182-31.327 1.4633-7.5402-5.4212-13.782-11.072-17.602-10.82-0.069122-0.00464-0.14293-0.00986-0.21362-0.01068z"/>
    <path id="path3399" d="m111.03 77.828c44.727 6.9635 82.825 2.5444 82.825 2.5444"/>
    <path id="path3401" d="m109.96 87.278c44.727 6.9635 83.896 3.3478 83.896 3.3478"/>
   </g>
  </g>
 </g>
</svg>
